<mxfile host="app.diagrams.net" modified="2022-07-25T09:09:28.356Z" agent="5.0 (Windows NT 10.0; Win64; x64) AppleWebKit/537.36 (KHTML, like Gecko) Chrome/100.0.4896.127 Safari/537.36" etag="ls4rbtUzdUWL-4Zs9EYp" version="20.0.1" type="github">
  <diagram id="R8gfX2kJp3bUNgBtq2-Y" name="第 1 页">
    <mxGraphModel dx="1550" dy="835" grid="0" gridSize="10" guides="1" tooltips="1" connect="1" arrows="1" fold="1" page="1" pageScale="1" pageWidth="827" pageHeight="1169" math="0" shadow="0">
      <root>
        <mxCell id="0" />
        <mxCell id="1" parent="0" />
        <mxCell id="f_0assqTDU02tBPkIdf6-1" value="" style="rounded=1;whiteSpace=wrap;html=1;" vertex="1" parent="1">
          <mxGeometry x="124" y="202" width="171" height="97" as="geometry" />
        </mxCell>
        <mxCell id="f_0assqTDU02tBPkIdf6-2" value="" style="rounded=1;whiteSpace=wrap;html=1;" vertex="1" parent="1">
          <mxGeometry x="290" y="390" width="171" height="97" as="geometry" />
        </mxCell>
        <mxCell id="f_0assqTDU02tBPkIdf6-3" value="" style="rounded=1;whiteSpace=wrap;html=1;" vertex="1" parent="1">
          <mxGeometry x="445" y="202" width="171" height="97" as="geometry" />
        </mxCell>
        <mxCell id="f_0assqTDU02tBPkIdf6-4" value="" style="endArrow=classic;html=1;rounded=0;" edge="1" parent="1">
          <mxGeometry width="50" height="50" relative="1" as="geometry">
            <mxPoint x="309" y="257" as="sourcePoint" />
            <mxPoint x="436" y="257" as="targetPoint" />
          </mxGeometry>
        </mxCell>
        <mxCell id="f_0assqTDU02tBPkIdf6-5" value="" style="endArrow=classic;html=1;rounded=0;" edge="1" parent="1">
          <mxGeometry width="50" height="50" relative="1" as="geometry">
            <mxPoint x="433" y="270" as="sourcePoint" />
            <mxPoint x="309" y="270" as="targetPoint" />
          </mxGeometry>
        </mxCell>
        <mxCell id="f_0assqTDU02tBPkIdf6-6" value="" style="rounded=1;whiteSpace=wrap;html=1;" vertex="1" parent="1">
          <mxGeometry x="149.5" y="232" width="120" height="60" as="geometry" />
        </mxCell>
        <mxCell id="f_0assqTDU02tBPkIdf6-7" value="" style="rounded=1;whiteSpace=wrap;html=1;" vertex="1" parent="1">
          <mxGeometry x="456" y="237" width="71" height="55" as="geometry" />
        </mxCell>
        <mxCell id="f_0assqTDU02tBPkIdf6-8" value="" style="rounded=1;whiteSpace=wrap;html=1;" vertex="1" parent="1">
          <mxGeometry x="535" y="237" width="71" height="55" as="geometry" />
        </mxCell>
        <mxCell id="f_0assqTDU02tBPkIdf6-10" value="" style="rounded=1;whiteSpace=wrap;html=1;" vertex="1" parent="1">
          <mxGeometry x="380" y="427" width="72" height="53" as="geometry" />
        </mxCell>
        <mxCell id="f_0assqTDU02tBPkIdf6-11" value="" style="rounded=1;whiteSpace=wrap;html=1;" vertex="1" parent="1">
          <mxGeometry x="301" y="427" width="72" height="53" as="geometry" />
        </mxCell>
        <mxCell id="f_0assqTDU02tBPkIdf6-12" value="Application" style="text;html=1;strokeColor=none;fillColor=none;align=center;verticalAlign=middle;whiteSpace=wrap;rounded=0;" vertex="1" parent="1">
          <mxGeometry x="171.25" y="206" width="76.5" height="26" as="geometry" />
        </mxCell>
        <mxCell id="f_0assqTDU02tBPkIdf6-13" value="Alluxio Client" style="text;html=1;strokeColor=none;fillColor=none;align=center;verticalAlign=middle;whiteSpace=wrap;rounded=0;" vertex="1" parent="1">
          <mxGeometry x="180" y="247" width="60" height="30" as="geometry" />
        </mxCell>
        <mxCell id="f_0assqTDU02tBPkIdf6-14" value="Alluxio Workers" style="text;html=1;strokeColor=none;fillColor=none;align=center;verticalAlign=middle;whiteSpace=wrap;rounded=0;" vertex="1" parent="1">
          <mxGeometry x="483.5" y="204" width="94" height="30" as="geometry" />
        </mxCell>
      </root>
    </mxGraphModel>
  </diagram>
</mxfile>
